<!DOCTYPE svg PUBLIC "-//W3C//DTD SVG 1.1//EN" "http://www.w3.org/Graphics/SVG/1.1/DTD/svg11.dtd">
<!-- Uploaded to: SVG Repo, www.svgrepo.com, Transformed by: SVG Repo Mixer Tools -->
<svg fill="#000000" height="125px" width="125px" version="1.1" id="Capa_1" xmlns="http://www.w3.org/2000/svg" xmlns:xlink="http://www.w3.org/1999/xlink" viewBox="0 0 511 511" xml:space="preserve" stroke="#000000" stroke-width="3.066">
<g id="SVGRepo_bgCarrier" stroke-width="0"/>
<g id="SVGRepo_tracerCarrier" stroke-linecap="round" stroke-linejoin="round"/>
<g id="SVGRepo_iconCarrier"> <g> <path d="M457.513,177.111c-9.8-15.123-21.516-30.361-35.05-45.608c-0.456-0.712-1.015-1.329-1.654-1.833 c-13.141-14.647-27.94-29.299-44.349-43.861c-23.841-21.157-47.823-39.213-67.837-53.164c-0.499-0.459-1.061-0.857-1.685-1.172 c-27.733-19.227-47.437-30.329-47.776-30.518c-2.275-1.273-5.05-1.273-7.325,0c-0.339,0.19-20.07,11.306-47.833,30.557 c-0.538,0.283-1.027,0.631-1.471,1.023c-20.046,13.966-44.091,32.06-67.994,53.273c-16.383,14.539-31.161,29.167-44.287,43.792 c-0.676,0.524-1.263,1.173-1.737,1.926c-13.526,15.24-25.234,30.47-35.03,45.585c-24.851,38.345-37.451,76.121-37.451,112.28 C16.036,363.063,76.465,423,150.742,423c23.014,0,45.045-5.631,64.761-16.437c-0.24,0.644-0.5,1.281-0.745,1.923 c-0.581,0.863-0.997,1.856-1.179,2.95c-0.007,0.044-0.009,0.088-0.015,0.132c-12.683,32.025-31.457,61.66-55.149,86.787 c-2.054,2.178-2.616,5.368-1.43,8.117s3.893,4.528,6.886,4.528h184.599c2.994,0,5.7-1.78,6.886-4.528s0.624-5.939-1.43-8.117 c-24.701-26.197-44.088-57.324-56.768-90.942c19.325,10.248,40.79,15.587,63.1,15.587c74.277,0,134.706-59.937,134.706-133.609 C494.964,253.232,482.364,215.456,457.513,177.111z M339.108,389.771l-6.523-15.748c17.369-8.074,33.271-18.783,47.191-31.618 l12.061,12.061C376.225,368.912,358.363,380.882,339.108,389.771z M402.458,343.875l-12.077-12.077 c12.835-13.919,23.545-29.822,31.618-47.191l15.809,6.548c-5.834,12.671-13.026,24.793-21.543,36.2 C411.966,333.113,407.348,338.623,402.458,343.875z M443.562,277.302l-15.795-6.542c6.441-17.491,10.278-36.228,11.067-55.737 h17.024C455.075,236.56,450.914,257.502,443.562,277.302z M453.861,200.023h-15.026c-0.383-9.644-1.508-19.156-3.366-28.5 c3.328,4.593,6.495,9.177,9.456,13.746C448.124,190.204,451.098,195.122,453.861,200.023z M255.501,16.165 c2.991,1.758,7.711,4.586,13.767,8.384c-4.572-0.34-9.163-0.525-13.768-0.525c-4.602,0-9.191,0.185-13.76,0.525 C247.792,20.751,252.511,17.923,255.501,16.165z M144.294,97.208c23.399-20.783,46.928-38.503,66.555-52.188 c14.478-3.968,29.489-5.996,44.651-5.996c15.168,0,30.185,2.03,44.667,6.001c19.557,13.638,42.995,31.289,66.337,52.004 c16.094,14.282,30.576,28.624,43.393,42.933c9.343,21.311,14.094,44.01,14.103,67.5c0,0.021-0.003,0.041-0.003,0.062 c0,0.021,0.003,0.041,0.003,0.062c-0.034,92.883-75.609,168.438-168.499,168.438c-92.893,0-168.47-75.56-168.499-168.446 c0-0.018,0.003-0.036,0.003-0.054c0-0.018-0.003-0.036-0.003-0.054c0.007-23.493,4.758-46.193,14.102-67.505 C113.866,125.714,128.28,111.431,144.294,97.208z M276.165,391.846c1.426,4.903,2.991,9.765,4.681,14.583 c-5.906,0.741-11.868,1.215-17.846,1.433v-17.006c4.336-0.175,8.633-0.5,12.888-0.973 C275.899,390.538,275.976,391.197,276.165,391.846z M231.43,406.582c1.86-5.296,3.581-10.64,5.123-16.038 c0.046-0.16,0.063-0.323,0.097-0.484c3.75,0.385,7.537,0.643,11.349,0.797v17.01C242.451,407.665,236.918,407.235,231.43,406.582z M119.158,354.472l12.067-12.067c13.919,12.835,29.822,23.544,47.191,31.618l-6.526,15.755 C152.63,380.888,134.77,368.921,119.158,354.472z M72.166,215.023c0.788,19.509,4.625,38.246,11.067,55.737l-15.797,6.543 c-7.35-19.795-11.51-40.734-12.293-62.281H72.166z M89,284.607c8.073,17.369,18.783,33.271,31.618,47.191l-12.082,12.082 c-4.643-4.987-9.039-10.211-13.152-15.659c-8.804-11.66-16.216-24.072-22.198-37.063L89,284.607z M75.53,171.523 c-1.858,9.344-2.982,18.856-3.365,28.5H57.139c2.742-4.862,5.691-9.742,8.861-14.639C68.982,180.777,72.174,176.155,75.53,171.523z M31.036,289.391c0-18.139,3.524-36.82,10.502-55.884c4.486,37.646,18.735,73.105,41.876,103.753 c22.853,30.267,53.722,54.189,88.458,68.897c-6.903,1.211-13.96,1.843-21.129,1.843C84.736,408,31.036,354.792,31.036,289.391z M196.254,399.117c-3.538-1.094-7.045-2.285-10.515-3.578l6.523-15.749c8.412,3.098,17.112,5.595,26.047,7.442 C211.33,391.996,203.951,395.967,196.254,399.117z M180.56,496c18.841-22.521,34.17-47.915,45.362-75.003 c9.763,1.338,19.683,2.026,29.578,2.026c10.323,0,20.669-0.746,30.839-2.201c11.2,27.155,26.567,52.615,45.442,75.178H180.56z M292.731,387.224c8.921-1.846,17.607-4.34,26.007-7.433l6.523,15.748c-3.247,1.209-6.523,2.341-9.83,3.375 c-0.197,0.062-0.386,0.136-0.575,0.212C307.14,395.97,299.734,391.998,292.731,387.224z M360.258,408 c-7.147,0-14.19-0.638-21.088-1.852c35.071-14.859,66.216-39.15,89.115-69.819c22.723-30.433,36.734-65.57,41.178-102.821 c6.978,19.063,10.502,37.744,10.502,55.883C479.964,354.792,426.264,408,360.258,408z"/> <path d="M255.5,335.023c34.414,0,65.682-13.711,88.643-35.95c0.594-0.331,1.155-0.742,1.66-1.247 c0.505-0.505,0.916-1.066,1.247-1.66c22.239-22.961,35.95-54.229,35.95-88.643c0-70.304-57.196-127.5-127.5-127.5 c-16.821,0-32.888,3.281-47.604,9.226c-0.413,0.093-0.824,0.214-1.229,0.382c-0.404,0.167-0.78,0.372-1.137,0.598 C159.992,109.703,128,154.945,128,207.523C128,277.827,185.196,335.023,255.5,335.023z M148.917,171.492l15.754,6.526 c-2.285,7.017-3.783,14.385-4.377,22.005h-17.038C143.912,190.111,145.848,180.544,148.917,171.492z M170.864,133.493 l12.047,12.047c-4.853,5.675-9.057,11.92-12.487,18.625l-15.741-6.52C159.031,148.89,164.484,140.777,170.864,133.493z M205.622,106.705l6.52,15.741c-6.705,3.431-12.95,7.635-18.625,12.488l-12.047-12.047 C188.754,116.507,196.867,111.054,205.622,106.705z M329.53,122.887l-12.046,12.046c-5.675-4.853-11.92-9.056-18.625-12.487 l6.52-15.741C314.133,111.054,322.245,116.507,329.53,122.887z M356.318,157.645l-15.741,6.52 c-3.431-6.705-7.635-12.95-12.487-18.625l12.046-12.046C346.515,140.777,351.969,148.89,356.318,157.645z M362.084,243.553 l-15.754-6.526c2.285-7.017,3.782-14.385,4.377-22.004h17.038C367.088,224.935,365.152,234.502,362.084,243.553z M340.136,281.553 l-12.047-12.047c4.853-5.675,9.057-11.92,12.487-18.625l15.741,6.52C351.969,266.156,346.516,274.269,340.136,281.553z M305.378,308.341l-6.52-15.741c6.705-3.431,12.95-7.635,18.625-12.488l12.047,12.047 C322.246,298.539,314.133,303.992,305.378,308.341z M181.47,292.159l12.046-12.047c5.675,4.853,11.92,9.056,18.625,12.487 l-6.52,15.741C196.867,303.992,188.754,298.539,181.47,292.159z M175,207.529c0-0.002,0-0.004,0-0.006s0-0.004,0-0.006 c0.004-44.383,36.111-80.49,80.493-80.493c0.002,0,0.004,0,0.006,0s0.004,0,0.006,0c44.378,0.003,80.483,36.104,80.493,80.48 c0,0.007-0.001,0.013-0.001,0.019s0.001,0.013,0.001,0.019c-0.01,44.37-36.105,80.466-80.474,80.48 c-0.009,0-0.017-0.001-0.026-0.001c-0.009,0-0.017,0.001-0.026,0.001C211.1,288.008,175.004,251.906,175,207.529z M225.995,298.352 c7.017,2.285,14.385,3.783,22.004,4.377v17.037c-9.911-0.656-19.479-2.593-28.53-5.66L225.995,298.352z M263,302.729 c7.619-0.595,14.988-2.092,22.005-4.377l6.526,15.754c-9.052,3.068-18.619,5.005-28.531,5.661V302.729z M367.744,200.023h-17.038 c-0.595-7.619-2.092-14.988-4.377-22.005l15.754-6.526C365.152,180.544,367.088,190.111,367.744,200.023z M285.005,116.694 c-7.017-2.285-14.385-3.782-22.005-4.377V95.279c9.912,0.656,19.479,2.593,28.53,5.661L285.005,116.694z M248,112.316 c-7.619,0.595-14.988,2.092-22.005,4.377l-6.526-15.754c9.052-3.068,18.619-5.005,28.53-5.661V112.316z M143.256,215.023h17.038 c0.595,7.619,2.092,14.988,4.377,22.004l-15.754,6.526C145.848,234.502,143.912,224.935,143.256,215.023z M170.423,250.881 c3.431,6.705,7.635,12.95,12.487,18.625l-12.046,12.047c-6.379-7.284-11.833-15.396-16.182-24.152L170.423,250.881z"/> <path d="M255.5,247.023c21.78,0,39.5-17.72,39.5-39.5s-17.72-39.5-39.5-39.5s-39.5,17.72-39.5,39.5S233.72,247.023,255.5,247.023z M255.5,183.023c13.509,0,24.5,10.991,24.5,24.5s-10.991,24.5-24.5,24.5s-24.5-10.991-24.5-24.5S241.991,183.023,255.5,183.023z"/> </g> </g>
</svg>